<?xml version="1.0" encoding="utf-8"?>
<!-- Generator: Adobe Illustrator 25.4.1, SVG Export Plug-In . SVG Version: 6.00 Build 0)  -->
<svg version="1.1" id="Layer_1" xmlns="http://www.w3.org/2000/svg" xmlns:xlink="http://www.w3.org/1999/xlink" x="0px" y="0px"
	 viewBox="0 0 24 24" style="enable-background:new 0 0 24 24;" xml:space="preserve">
<style type="text/css">
	.st0{fill:#FFFFFF;}
</style>
<path class="st0" d="M12,5c-1.9,0-3.5,1.6-3.5,3.5S10.1,12,12,12s3.5-1.6,3.5-3.5S13.9,5,12,5 M12,7c0.8,0,1.5,0.7,1.5,1.5
	S12.8,10,12,10s-1.5-0.7-1.5-1.5S11.2,7,12,7 M5.5,8C4.1,8,3,9.1,3,10.5c0,0.9,0.5,1.8,1.3,2.2C4.7,12.9,5.1,13,5.5,13
	s0.8-0.1,1.2-0.3c0.4-0.2,0.7-0.5,0.9-0.9c-0.7-1-1.1-2.1-1.1-3.3c0-0.1,0-0.2,0-0.3C6.2,8.1,5.9,8,5.5,8 M18.5,8
	c-0.4,0-0.7,0.1-1,0.2c0,0.1,0,0.2,0,0.3c0,1.2-0.4,2.4-1.1,3.3c0.1,0.2,0.2,0.3,0.4,0.5c0.2,0.1,0.3,0.3,0.5,0.4
	c0.4,0.2,0.8,0.3,1.2,0.3s0.9-0.1,1.2-0.3c0.8-0.4,1.3-1.2,1.3-2.2C21,9.1,19.9,8,18.5,8 M12,14c-2.3,0-7,1.2-7,3.5V19h14v-1.5
	C19,15.2,14.3,14,12,14 M4.7,14.6C2.8,14.8,0,15.8,0,17.5V19h3v-1.9C3,16.1,3.7,15.2,4.7,14.6 M19.3,14.6c1,0.7,1.7,1.5,1.7,2.5V19
	h3v-1.5C24,15.8,21.2,14.8,19.3,14.6 M12,16c1.5,0,3.2,0.5,4.2,1H7.8C8.8,16.5,10.5,16,12,16z"/>
</svg>
