<?xml version="1.0" encoding="utf-8"?>
<!-- Generator: Adobe Illustrator 25.4.1, SVG Export Plug-In . SVG Version: 6.00 Build 0)  -->
<svg version="1.1" id="Layer_1" xmlns="http://www.w3.org/2000/svg" xmlns:xlink="http://www.w3.org/1999/xlink" x="0px" y="0px"
	 viewBox="0 0 24 24" style="enable-background:new 0 0 24 24;" xml:space="preserve">
<style type="text/css">
	.st0{fill:#FFFFFF;}
</style>
<path class="st0" d="M12,8c2.2,0,4,1.8,4,4s-1.8,4-4,4s-4-1.8-4-4S9.8,8,12,8 M12,10c-1.1,0-2,0.9-2,2s0.9,2,2,2s2-0.9,2-2
	S13.1,10,12,10 M10,22c-0.2,0-0.5-0.2-0.5-0.4l-0.4-2.6c-0.6-0.2-1.2-0.6-1.7-1l-2.5,1c-0.2,0.1-0.5,0-0.6-0.2l-2-3.5
	c-0.1-0.2-0.1-0.5,0.1-0.6L4.6,13l-0.1-1l0.1-1L2.5,9.4C2.3,9.2,2.2,8.9,2.3,8.7l2-3.5C4.5,5.1,4.7,5,4.9,5.1l2.5,1
	c0.5-0.4,1.1-0.7,1.7-1l0.4-2.7C9.5,2.2,9.8,2,10,2h4c0.2,0,0.5,0.2,0.5,0.4l0.4,2.7c0.6,0.2,1.2,0.6,1.7,1l2.5-1
	c0.2-0.1,0.5,0,0.6,0.2l2,3.5c0.1,0.2,0.1,0.5-0.1,0.6L19.4,11l0.1,1l-0.1,1l2.1,1.6c0.2,0.1,0.2,0.4,0.1,0.6l-2,3.5
	C19.5,19,19.3,19,19,19l-2.5-1c-0.5,0.4-1.1,0.7-1.7,1l-0.4,2.6c0,0.2-0.2,0.4-0.5,0.4H10 M11.2,4l-0.4,2.6c-1.2,0.2-2.3,0.9-3,1.8
	l-2.4-1L4.7,8.6l2.1,1.6c-0.4,1.2-0.4,2.4,0,3.6l-2.1,1.6l0.8,1.3l2.4-1c0.8,0.9,1.8,1.5,3,1.8l0.4,2.6h1.5l0.4-2.6
	c1.2-0.2,2.2-0.9,3-1.8l2.4,1l0.8-1.3l-2.1-1.5c0.4-1.2,0.4-2.4,0-3.6l2.1-1.6l-0.8-1.3l-2.4,1c-0.8-0.9-1.8-1.5-3-1.8L12.8,4H11.2z
	"/>
</svg>
