<?xml version="1.0" encoding="utf-8"?>
<!-- Generator: Adobe Illustrator 25.4.1, SVG Export Plug-In . SVG Version: 6.00 Build 0)  -->
<svg version="1.1" id="Layer_1" xmlns="http://www.w3.org/2000/svg" xmlns:xlink="http://www.w3.org/1999/xlink" x="0px" y="0px"
	 viewBox="0 0 24 24" style="enable-background:new 0 0 24 24;" xml:space="preserve">
<path d="M5.8,21l1.6-7L2,9.2l7.2-0.6L12,2l2.8,6.6L22,9.2L18.8,12H18c-0.7,0-1.4,0.1-2.1,0.4l2.2-1.9l-4.4-0.4l-1.7-4l-1.7,4
	l-4.4,0.4l3.3,2.9l-1,4.3l3.8-2.3l0.5,0.3c-0.2,0.5-0.4,1.1-0.4,1.6L5.8,21 M17,14v3h-3v2h3v3h2v-3h3v-2h-3v-3H17z"/>
</svg>
