<?xml version="1.0" encoding="utf-8"?>
<!-- Generator: Adobe Illustrator 25.4.1, SVG Export Plug-In . SVG Version: 6.00 Build 0)  -->
<svg version="1.1" id="Layer_1" xmlns="http://www.w3.org/2000/svg" xmlns:xlink="http://www.w3.org/1999/xlink" x="0px" y="0px"
	 viewBox="0 0 24 24" style="enable-background:new 0 0 24 24;" xml:space="preserve">
<style type="text/css">
	.st0{fill:#FFFFFF;}
</style>
<path class="st0" d="M20,16V4H8v12H20 M22,16c0,1.1-0.9,2-2,2H8c-1.1,0-2-0.9-2-2V4c0-1.1,0.9-2,2-2h12c1.1,0,2,0.9,2,2V16 M16,20v2
	H4c-1.1,0-2-0.9-2-2V7h2v13H16 M14.2,5c-0.9,0-1.6,0.2-2.1,0.6s-0.8,1-0.8,1.8h1.9c0-0.3,0.1-0.5,0.3-0.7c0.2-0.1,0.4-0.2,0.7-0.2
	s0.6,0.1,0.8,0.3c0.2,0.2,0.3,0.4,0.3,0.8c0,0.3-0.1,0.6-0.2,0.8C15,8.6,14.7,8.8,14.5,9c-0.5,0.3-0.9,0.6-1,0.9
	C13.1,10.1,13,10.5,13,11h2c0-0.3,0-0.6,0.1-0.7c0.1-0.2,0.3-0.4,0.5-0.5c0.4-0.2,0.8-0.5,1.1-0.9C17,8.4,17.2,8,17.2,7.5
	c0-0.8-0.3-1.4-0.8-1.8C15.9,5.2,15.1,5,14.2,5 M13,12v2h2v-2H13z"/>
</svg>
